<?xml version="1.0" encoding="UTF-8" standalone="no"?>
<!DOCTYPE svg PUBLIC "-//W3C//DTD SVG 1.1//EN"
 "http://www.w3.org/Graphics/SVG/1.1/DTD/svg11.dtd">
<!-- Generated by graphviz version 2.38.0 (20140413.2041)
 -->
<!-- Title: Call graph of the module. Pages: 1 -->
<svg width="1111pt" height="253pt"
 viewBox="0.00 0.00 1111.00 253.00" xmlns="http://www.w3.org/2000/svg" xmlns:xlink="http://www.w3.org/1999/xlink">
<g id="graph0" class="graph" transform="scale(1 1) rotate(0) translate(4 249)">
<title>Call graph of the module.</title>
<polygon fill="white" stroke="none" points="-4,4 -4,-249 1107,-249 1107,4 -4,4"/>
<text text-anchor="middle" x="551.5" y="-7.8" font-family="Times,serif" font-size="14.00">Call graph of modules /home/huanggb/temp/serial/nov_serial_ap/code/tcl_serial.c, /home/huanggb/temp/serial/nov_serial_ap/code/tcl_serial_translate.c.</text>
<g id="clust2" class="cluster"><title>cluster_2fhome2fhuanggb2ftemp2fserial2fnov_serial_ap2fcode2ftcl_serial_translate_c</title>
<polygon fill="none" stroke="#0000cd" points="133,-88 133,-237 641,-237 641,-88 133,-88"/>
<text text-anchor="middle" x="387" y="-221.8" font-family="Times,serif" font-size="14.00" fill="#0000cd">/home/huanggb/temp/serial/nov_serial_ap/code/tcl_serial_translate.c</text>
</g>
<!-- Node_main -->
<g id="node1" class="node"><title>Node_main</title>
<polygon fill="none" stroke="black" points="579,-169.5 579,-205.5 633,-205.5 633,-169.5 579,-169.5"/>
<text text-anchor="middle" x="606" y="-183.8" font-family="Times,serif" font-size="14.00">main</text>
</g>
<!-- Node_file_search -->
<g id="node2" class="node"><title>Node_file_search</title>
<polygon fill="none" stroke="black" points="537,-96.5 537,-132.5 631,-132.5 631,-96.5 537,-96.5"/>
<text text-anchor="middle" x="584" y="-110.8" font-family="Times,serif" font-size="14.00">file_search</text>
</g>
<!-- Node_main&#45;&gt;Node_file_search -->
<g id="edge1" class="edge"><title>Node_main&#45;&gt;Node_file_search</title>
<path fill="none" stroke="black" d="M600.674,-169.313C598.161,-161.202 595.104,-151.336 592.297,-142.277"/>
<polygon fill="black" stroke="black" points="595.58,-141.045 589.277,-132.529 588.893,-143.117 595.58,-141.045"/>
</g>
<!-- Node_tcl_com_fifo_init -->
<g id="node3" class="node"><title>Node_tcl_com_fifo_init</title>
<polygon fill="none" stroke="black" points="385,-96.5 385,-132.5 519,-132.5 519,-96.5 385,-96.5"/>
<text text-anchor="middle" x="452" y="-110.8" font-family="Times,serif" font-size="14.00">tcl_com_fifo_init</text>
</g>
<!-- Node_main&#45;&gt;Node_tcl_com_fifo_init -->
<g id="edge2" class="edge"><title>Node_main&#45;&gt;Node_tcl_com_fifo_init</title>
<path fill="none" stroke="black" d="M578.822,-173.97C556.597,-163.723 524.667,-149.002 498.406,-136.895"/>
<polygon fill="black" stroke="black" points="499.563,-133.574 489.016,-132.566 496.632,-139.931 499.563,-133.574"/>
</g>
<!-- Node_tcl_fifo_write -->
<g id="node4" class="node"><title>Node_tcl_fifo_write</title>
<polygon fill="none" stroke="black" points="243,-96.5 243,-132.5 353,-132.5 353,-96.5 243,-96.5"/>
<text text-anchor="middle" x="298" y="-110.8" font-family="Times,serif" font-size="14.00">tcl_fifo_write</text>
</g>
<!-- Node_main&#45;&gt;Node_tcl_fifo_write -->
<g id="edge3" class="edge"><title>Node_main&#45;&gt;Node_tcl_fifo_write</title>
<path fill="none" stroke="black" d="M578.937,-180.261C531.046,-169.222 430.117,-145.956 363.189,-130.527"/>
<polygon fill="black" stroke="black" points="363.693,-127.052 353.162,-128.216 362.12,-133.873 363.693,-127.052"/>
</g>
<!-- Node_fopen -->
<g id="node6" class="node"><title>Node_fopen</title>
<polygon fill="none" stroke="#7f7f7f" points="922,-96.5 922,-132.5 978,-132.5 978,-96.5 922,-96.5"/>
<text text-anchor="middle" x="950" y="-110.8" font-family="Times,serif" font-size="14.00" fill="#7f7f7f">fopen</text>
</g>
<!-- Node_main&#45;&gt;Node_fopen -->
<g id="edge4" class="edge"><title>Node_main&#45;&gt;Node_fopen</title>
<path fill="none" stroke="black" d="M633.274,-184.229C686.002,-179.318 805.428,-165.649 912.011,-132.87"/>
<polygon fill="black" stroke="black" points="913.134,-136.186 921.625,-129.85 911.035,-129.508 913.134,-136.186"/>
</g>
<!-- Node_strcpy -->
<g id="node7" class="node"><title>Node_strcpy</title>
<polygon fill="none" stroke="#7f7f7f" points="649,-96.5 649,-132.5 711,-132.5 711,-96.5 649,-96.5"/>
<text text-anchor="middle" x="680" y="-110.8" font-family="Times,serif" font-size="14.00" fill="#7f7f7f">strcpy</text>
</g>
<!-- Node_main&#45;&gt;Node_strcpy -->
<g id="edge5" class="edge"><title>Node_main&#45;&gt;Node_strcpy</title>
<path fill="none" stroke="black" d="M623.913,-169.313C633.185,-160.417 644.658,-149.409 654.807,-139.672"/>
<polygon fill="black" stroke="black" points="657.459,-141.978 662.252,-132.529 652.613,-136.927 657.459,-141.978"/>
</g>
<!-- Node_puts -->
<g id="node8" class="node"><title>Node_puts</title>
<polygon fill="none" stroke="#7f7f7f" points="582,-23.5 582,-59.5 636,-59.5 636,-23.5 582,-23.5"/>
<text text-anchor="middle" x="609" y="-37.8" font-family="Times,serif" font-size="14.00" fill="#7f7f7f">puts</text>
</g>
<!-- Node_main&#45;&gt;Node_puts -->
<g id="edge6" class="edge"><title>Node_main&#45;&gt;Node_puts</title>
<path fill="none" stroke="black" d="M633.141,-182.249C660.4,-176.378 701.007,-162.894 720,-133 730.725,-116.119 731.142,-104.609 720,-88 703.684,-63.6779 671.799,-52.3473 646.373,-47.0745"/>
<polygon fill="black" stroke="black" points="646.757,-43.5865 636.289,-45.2219 645.492,-50.4713 646.757,-43.5865"/>
</g>
<!-- Node_strlen -->
<g id="node10" class="node"><title>Node_strlen</title>
<polygon fill="none" stroke="#7f7f7f" points="767.5,-96.5 767.5,-132.5 826.5,-132.5 826.5,-96.5 767.5,-96.5"/>
<text text-anchor="middle" x="797" y="-110.8" font-family="Times,serif" font-size="14.00" fill="#7f7f7f">strlen</text>
</g>
<!-- Node_main&#45;&gt;Node_strlen -->
<g id="edge7" class="edge"><title>Node_main&#45;&gt;Node_strlen</title>
<path fill="none" stroke="black" d="M633.182,-176.878C662.753,-166.347 711.375,-148.848 753,-133 754.585,-132.397 756.199,-131.777 757.829,-131.147"/>
<polygon fill="black" stroke="black" points="759.182,-134.377 767.224,-127.48 756.636,-127.856 759.182,-134.377"/>
</g>
<!-- Node_fclose -->
<g id="node13" class="node"><title>Node_fclose</title>
<polygon fill="none" stroke="#7f7f7f" points="844.5,-96.5 844.5,-132.5 903.5,-132.5 903.5,-96.5 844.5,-96.5"/>
<text text-anchor="middle" x="874" y="-110.8" font-family="Times,serif" font-size="14.00" fill="#7f7f7f">fclose</text>
</g>
<!-- Node_main&#45;&gt;Node_fclose -->
<g id="edge8" class="edge"><title>Node_main&#45;&gt;Node_fclose</title>
<path fill="none" stroke="black" d="M633.057,-182.048C674.78,-174.793 757.31,-158.89 834.493,-133.192"/>
<polygon fill="black" stroke="black" points="836.019,-136.37 844.363,-129.841 833.769,-129.742 836.019,-136.37"/>
</g>
<!-- Node_file_search&#45;&gt;Node_puts -->
<g id="edge9" class="edge"><title>Node_file_search&#45;&gt;Node_puts</title>
<path fill="none" stroke="black" d="M590.052,-96.3129C592.938,-88.1151 596.457,-78.1231 599.674,-68.9847"/>
<polygon fill="black" stroke="black" points="602.984,-70.1237 603.004,-59.5288 596.381,-67.7987 602.984,-70.1237"/>
</g>
<!-- Node_printf -->
<g id="node5" class="node"><title>Node_printf</title>
<polygon fill="none" stroke="#7f7f7f" points="423.5,-23.5 423.5,-59.5 480.5,-59.5 480.5,-23.5 423.5,-23.5"/>
<text text-anchor="middle" x="452" y="-37.8" font-family="Times,serif" font-size="14.00" fill="#7f7f7f">printf</text>
</g>
<!-- Node_tcl_com_fifo_init&#45;&gt;Node_printf -->
<g id="edge10" class="edge"><title>Node_tcl_com_fifo_init&#45;&gt;Node_printf</title>
<path fill="none" stroke="black" d="M452,-96.3129C452,-88.2895 452,-78.5475 452,-69.5691"/>
<polygon fill="black" stroke="black" points="455.5,-69.5288 452,-59.5288 448.5,-69.5289 455.5,-69.5288"/>
</g>
<!-- Node_tcl_com_fifo_init&#45;&gt;Node_puts -->
<g id="edge11" class="edge"><title>Node_tcl_com_fifo_init&#45;&gt;Node_puts</title>
<path fill="none" stroke="black" d="M490.74,-96.4919C514.295,-86.0848 544.95,-72.425 572,-60 572.202,-59.9073 572.404,-59.8143 572.607,-59.7209"/>
<polygon fill="black" stroke="black" points="574.361,-62.7654 581.955,-55.3772 571.411,-56.4173 574.361,-62.7654"/>
</g>
<!-- Node_access -->
<g id="node12" class="node"><title>Node_access</title>
<polygon fill="none" stroke="#7f7f7f" points="498.5,-23.5 498.5,-59.5 563.5,-59.5 563.5,-23.5 498.5,-23.5"/>
<text text-anchor="middle" x="531" y="-37.8" font-family="Times,serif" font-size="14.00" fill="#7f7f7f">access</text>
</g>
<!-- Node_tcl_com_fifo_init&#45;&gt;Node_access -->
<g id="edge12" class="edge"><title>Node_tcl_com_fifo_init&#45;&gt;Node_access</title>
<path fill="none" stroke="black" d="M471.124,-96.3129C481.119,-87.3302 493.51,-76.1933 504.423,-66.3856"/>
<polygon fill="black" stroke="black" points="506.954,-68.8165 512.052,-59.5288 502.275,-63.6101 506.954,-68.8165"/>
</g>
<!-- Node_mkfifo -->
<g id="node15" class="node"><title>Node_mkfifo</title>
<polygon fill="none" stroke="#7f7f7f" points="343,-23.5 343,-59.5 405,-59.5 405,-23.5 343,-23.5"/>
<text text-anchor="middle" x="374" y="-37.8" font-family="Times,serif" font-size="14.00" fill="#7f7f7f">mkfifo</text>
</g>
<!-- Node_tcl_com_fifo_init&#45;&gt;Node_mkfifo -->
<g id="edge13" class="edge"><title>Node_tcl_com_fifo_init&#45;&gt;Node_mkfifo</title>
<path fill="none" stroke="black" d="M433.118,-96.3129C423.25,-87.3302 411.015,-76.1933 400.241,-66.3856"/>
<polygon fill="black" stroke="black" points="402.459,-63.672 392.708,-59.5288 397.747,-68.8486 402.459,-63.672"/>
</g>
<!-- Node_tcl_fifo_write&#45;&gt;Node_puts -->
<g id="edge14" class="edge"><title>Node_tcl_fifo_write&#45;&gt;Node_puts</title>
<path fill="none" stroke="black" d="M345.895,-96.3928C355.762,-93.2793 366.149,-90.2956 376,-88 461.7,-68.0304 487.725,-85.3181 572,-60 572.102,-59.9693 572.204,-59.9384 572.306,-59.9073"/>
<polygon fill="black" stroke="black" points="573.672,-63.1354 581.884,-56.4415 571.29,-56.5532 573.672,-63.1354"/>
</g>
<!-- Node_open -->
<g id="node9" class="node"><title>Node_open</title>
<polygon fill="none" stroke="#7f7f7f" points="271,-23.5 271,-59.5 325,-59.5 325,-23.5 271,-23.5"/>
<text text-anchor="middle" x="298" y="-37.8" font-family="Times,serif" font-size="14.00" fill="#7f7f7f">open</text>
</g>
<!-- Node_tcl_fifo_write&#45;&gt;Node_open -->
<g id="edge15" class="edge"><title>Node_tcl_fifo_write&#45;&gt;Node_open</title>
<path fill="none" stroke="black" d="M298,-96.3129C298,-88.2895 298,-78.5475 298,-69.5691"/>
<polygon fill="black" stroke="black" points="301.5,-69.5288 298,-59.5288 294.5,-69.5289 301.5,-69.5288"/>
</g>
<!-- Node_write -->
<g id="node11" class="node"><title>Node_write</title>
<polygon fill="none" stroke="#7f7f7f" points="127,-23.5 127,-59.5 181,-59.5 181,-23.5 127,-23.5"/>
<text text-anchor="middle" x="154" y="-37.8" font-family="Times,serif" font-size="14.00" fill="#7f7f7f">write</text>
</g>
<!-- Node_tcl_fifo_write&#45;&gt;Node_write -->
<g id="edge16" class="edge"><title>Node_tcl_fifo_write&#45;&gt;Node_write</title>
<path fill="none" stroke="black" d="M263.508,-96.4937C241.376,-85.5811 212.683,-71.4338 190.22,-60.3583"/>
<polygon fill="black" stroke="black" points="191.528,-57.1012 181.011,-55.8181 188.433,-63.3796 191.528,-57.1012"/>
</g>
<!-- Node_close -->
<g id="node14" class="node"><title>Node_close</title>
<polygon fill="none" stroke="#7f7f7f" points="199,-23.5 199,-59.5 253,-59.5 253,-23.5 199,-23.5"/>
<text text-anchor="middle" x="226" y="-37.8" font-family="Times,serif" font-size="14.00" fill="#7f7f7f">close</text>
</g>
<!-- Node_tcl_fifo_write&#45;&gt;Node_close -->
<g id="edge17" class="edge"><title>Node_tcl_fifo_write&#45;&gt;Node_close</title>
<path fill="none" stroke="black" d="M280.571,-96.3129C271.55,-87.4174 260.387,-76.4094 250.512,-66.6717"/>
<polygon fill="black" stroke="black" points="252.847,-64.0582 243.269,-59.5288 247.932,-69.0425 252.847,-64.0582"/>
</g>
</g>
</svg>
