<?xml version="1.0" encoding="UTF-8" standalone="no"?>
<!DOCTYPE svg PUBLIC "-//W3C//DTD SVG 1.1//EN"
 "http://www.w3.org/Graphics/SVG/1.1/DTD/svg11.dtd">
<!-- Generated by graphviz version 2.38.0 (20140413.2041)
 -->
<!-- Title: Call graph of the module. Pages: 1 -->
<svg width="1472pt" height="360pt"
 viewBox="0.00 0.00 1471.50 360.00" xmlns="http://www.w3.org/2000/svg" xmlns:xlink="http://www.w3.org/1999/xlink">
<g id="graph0" class="graph" transform="scale(1 1) rotate(0) translate(4 356)">
<title>Call graph of the module.</title>
<polygon fill="white" stroke="none" points="-4,4 -4,-356 1467.5,-356 1467.5,4 -4,4"/>
<text text-anchor="middle" x="731.75" y="-7.8" font-family="Times,serif" font-size="14.00">Call graph of the module.</text>
<!-- Node_atoi -->
<g id="node1" class="node"><title>Node_atoi</title>
<polygon fill="none" stroke="#7f7f7f" points="438,-23.5 438,-59.5 492,-59.5 492,-23.5 438,-23.5"/>
<text text-anchor="middle" x="465" y="-37.8" font-family="Times,serif" font-size="14.00" fill="#7f7f7f">atoi</text>
</g>
<!-- Node_close -->
<g id="node2" class="node"><title>Node_close</title>
<polygon fill="none" stroke="#7f7f7f" points="902,-242.5 902,-278.5 956,-278.5 956,-242.5 902,-242.5"/>
<text text-anchor="middle" x="929" y="-256.8" font-family="Times,serif" font-size="14.00" fill="#7f7f7f">close</text>
</g>
<!-- Node_readProjectId -->
<g id="node3" class="node"><title>Node_readProjectId</title>
<polygon fill="none" stroke="black" points="734,-169.5 734,-205.5 850,-205.5 850,-169.5 734,-169.5"/>
<text text-anchor="middle" x="792" y="-183.8" font-family="Times,serif" font-size="14.00">readProjectId</text>
</g>
<!-- Node_printf -->
<g id="node16" class="node"><title>Node_printf</title>
<polygon fill="none" stroke="#7f7f7f" points="903.5,-23.5 903.5,-59.5 960.5,-59.5 960.5,-23.5 903.5,-23.5"/>
<text text-anchor="middle" x="932" y="-37.8" font-family="Times,serif" font-size="14.00" fill="#7f7f7f">printf</text>
</g>
<!-- Node_readProjectId&#45;&gt;Node_printf -->
<g id="edge1" class="edge"><title>Node_readProjectId&#45;&gt;Node_printf</title>
<path fill="none" stroke="black" d="M813.755,-169.486C826.256,-159.356 842.006,-145.981 855,-133 875.882,-112.138 897.476,-86.3242 912.462,-67.6116"/>
<polygon fill="black" stroke="black" points="915.38,-69.5651 918.857,-59.5568 909.898,-65.2127 915.38,-69.5651"/>
</g>
<!-- Node_fopen -->
<g id="node17" class="node"><title>Node_fopen</title>
<polygon fill="none" stroke="#7f7f7f" points="790,-96.5 790,-132.5 846,-132.5 846,-96.5 790,-96.5"/>
<text text-anchor="middle" x="818" y="-110.8" font-family="Times,serif" font-size="14.00" fill="#7f7f7f">fopen</text>
</g>
<!-- Node_readProjectId&#45;&gt;Node_fopen -->
<g id="edge2" class="edge"><title>Node_readProjectId&#45;&gt;Node_fopen</title>
<path fill="none" stroke="black" d="M798.294,-169.313C801.296,-161.115 804.955,-151.123 808.301,-141.985"/>
<polygon fill="black" stroke="black" points="811.612,-143.123 811.764,-132.529 805.039,-140.715 811.612,-143.123"/>
</g>
<!-- Node_fgets -->
<g id="node18" class="node"><title>Node_fgets</title>
<polygon fill="none" stroke="#7f7f7f" points="565,-96.5 565,-132.5 619,-132.5 619,-96.5 565,-96.5"/>
<text text-anchor="middle" x="592" y="-110.8" font-family="Times,serif" font-size="14.00" fill="#7f7f7f">fgets</text>
</g>
<!-- Node_readProjectId&#45;&gt;Node_fgets -->
<g id="edge3" class="edge"><title>Node_readProjectId&#45;&gt;Node_fgets</title>
<path fill="none" stroke="black" d="M733.622,-169.591C704.335,-160.616 668.261,-148.819 628.877,-133.122"/>
<polygon fill="black" stroke="black" points="629.925,-129.771 619.342,-129.271 627.304,-136.261 629.925,-129.771"/>
</g>
<!-- Node_puts -->
<g id="node23" class="node"><title>Node_puts</title>
<polygon fill="none" stroke="#7f7f7f" points="157,-96.5 157,-132.5 211,-132.5 211,-96.5 157,-96.5"/>
<text text-anchor="middle" x="184" y="-110.8" font-family="Times,serif" font-size="14.00" fill="#7f7f7f">puts</text>
</g>
<!-- Node_readProjectId&#45;&gt;Node_puts -->
<g id="edge4" class="edge"><title>Node_readProjectId&#45;&gt;Node_puts</title>
<path fill="none" stroke="black" d="M733.671,-170.589C730.749,-170.004 727.847,-169.469 725,-169 506.233,-132.948 439.302,-189.54 220.939,-132.613"/>
<polygon fill="black" stroke="black" points="221.662,-129.184 211.099,-129.998 219.864,-135.949 221.662,-129.184"/>
</g>
<!-- Node_strlen -->
<g id="node25" class="node"><title>Node_strlen</title>
<polygon fill="none" stroke="#7f7f7f" points="902.5,-96.5 902.5,-132.5 961.5,-132.5 961.5,-96.5 902.5,-96.5"/>
<text text-anchor="middle" x="932" y="-110.8" font-family="Times,serif" font-size="14.00" fill="#7f7f7f">strlen</text>
</g>
<!-- Node_readProjectId&#45;&gt;Node_strlen -->
<g id="edge5" class="edge"><title>Node_readProjectId&#45;&gt;Node_strlen</title>
<path fill="none" stroke="black" d="M825.533,-169.494C845.828,-159.202 871.796,-146.032 893.005,-135.276"/>
<polygon fill="black" stroke="black" points="894.738,-138.321 902.074,-130.677 891.572,-132.078 894.738,-138.321"/>
</g>
<!-- Node_fclose -->
<g id="node28" class="node"><title>Node_fclose</title>
<polygon fill="none" stroke="#7f7f7f" points="712.5,-96.5 712.5,-132.5 771.5,-132.5 771.5,-96.5 712.5,-96.5"/>
<text text-anchor="middle" x="742" y="-110.8" font-family="Times,serif" font-size="14.00" fill="#7f7f7f">fclose</text>
</g>
<!-- Node_readProjectId&#45;&gt;Node_fclose -->
<g id="edge6" class="edge"><title>Node_readProjectId&#45;&gt;Node_fclose</title>
<path fill="none" stroke="black" d="M779.896,-169.313C773.878,-160.766 766.486,-150.269 759.833,-140.823"/>
<polygon fill="black" stroke="black" points="762.612,-138.69 753.992,-132.529 756.888,-142.72 762.612,-138.69"/>
</g>
<!-- Node_deleteBlank -->
<g id="node4" class="node"><title>Node_deleteBlank</title>
<polygon fill="none" stroke="black" points="445,-96.5 445,-132.5 547,-132.5 547,-96.5 445,-96.5"/>
<text text-anchor="middle" x="496" y="-110.8" font-family="Times,serif" font-size="14.00">deleteBlank</text>
</g>
<!-- Node_strcpy -->
<g id="node22" class="node"><title>Node_strcpy</title>
<polygon fill="none" stroke="#7f7f7f" points="510,-23.5 510,-59.5 572,-59.5 572,-23.5 510,-23.5"/>
<text text-anchor="middle" x="541" y="-37.8" font-family="Times,serif" font-size="14.00" fill="#7f7f7f">strcpy</text>
</g>
<!-- Node_deleteBlank&#45;&gt;Node_strcpy -->
<g id="edge7" class="edge"><title>Node_deleteBlank&#45;&gt;Node_strcpy</title>
<path fill="none" stroke="black" d="M506.893,-96.3129C512.255,-87.8534 518.827,-77.4835 524.767,-68.1124"/>
<polygon fill="black" stroke="black" points="527.81,-69.8489 530.207,-59.5288 521.897,-66.1016 527.81,-69.8489"/>
</g>
<!-- Node_findSymbol -->
<g id="node5" class="node"><title>Node_findSymbol</title>
<polygon fill="none" stroke="black" points="218,-23.5 218,-59.5 314,-59.5 314,-23.5 218,-23.5"/>
<text text-anchor="middle" x="266" y="-37.8" font-family="Times,serif" font-size="14.00">findSymbol</text>
</g>
<!-- Node_isNumber -->
<g id="node6" class="node"><title>Node_isNumber</title>
<polygon fill="none" stroke="black" points="332,-23.5 332,-59.5 420,-59.5 420,-23.5 332,-23.5"/>
<text text-anchor="middle" x="376" y="-37.8" font-family="Times,serif" font-size="14.00">isNumber</text>
</g>
<!-- Node_getProjectid -->
<g id="node7" class="node"><title>Node_getProjectid</title>
<polygon fill="none" stroke="black" points="321.5,-96.5 321.5,-132.5 426.5,-132.5 426.5,-96.5 321.5,-96.5"/>
<text text-anchor="middle" x="374" y="-110.8" font-family="Times,serif" font-size="14.00">getProjectid</text>
</g>
<!-- Node_getProjectid&#45;&gt;Node_atoi -->
<g id="edge8" class="edge"><title>Node_getProjectid&#45;&gt;Node_atoi</title>
<path fill="none" stroke="black" d="M396.029,-96.3129C407.765,-87.1558 422.371,-75.76 435.116,-65.8158"/>
<polygon fill="black" stroke="black" points="437.443,-68.4397 443.174,-59.5288 433.137,-62.9208 437.443,-68.4397"/>
</g>
<!-- Node_getProjectid&#45;&gt;Node_findSymbol -->
<g id="edge9" class="edge"><title>Node_getProjectid&#45;&gt;Node_findSymbol</title>
<path fill="none" stroke="black" d="M348.131,-96.4937C333.942,-87.1657 316.158,-75.4742 300.77,-65.358"/>
<polygon fill="black" stroke="black" points="302.311,-62.1823 292.032,-59.6136 298.465,-68.0316 302.311,-62.1823"/>
</g>
<!-- Node_getProjectid&#45;&gt;Node_isNumber -->
<g id="edge10" class="edge"><title>Node_getProjectid&#45;&gt;Node_isNumber</title>
<path fill="none" stroke="black" d="M374.484,-96.3129C374.71,-88.2895 374.985,-78.5475 375.237,-69.5691"/>
<polygon fill="black" stroke="black" points="378.737,-69.6235 375.52,-59.5288 371.74,-69.4263 378.737,-69.6235"/>
</g>
<!-- Node_memcpy -->
<g id="node19" class="node"><title>Node_memcpy</title>
<polygon fill="none" stroke="#7f7f7f" points="122.5,-23.5 122.5,-59.5 199.5,-59.5 199.5,-23.5 122.5,-23.5"/>
<text text-anchor="middle" x="161" y="-37.8" font-family="Times,serif" font-size="14.00" fill="#7f7f7f">memcpy</text>
</g>
<!-- Node_getProjectid&#45;&gt;Node_memcpy -->
<g id="edge11" class="edge"><title>Node_getProjectid&#45;&gt;Node_memcpy</title>
<path fill="none" stroke="black" d="M321.45,-96.9937C291.177,-87.3618 252.208,-74.7569 209.249,-60.0314"/>
<polygon fill="black" stroke="black" points="210.325,-56.7002 199.73,-56.7561 208.047,-63.3193 210.325,-56.7002"/>
</g>
<!-- Node_countMarks -->
<g id="node8" class="node"><title>Node_countMarks</title>
<polygon fill="none" stroke="black" points="0,-23.5 0,-59.5 104,-59.5 104,-23.5 0,-23.5"/>
<text text-anchor="middle" x="52" y="-37.8" font-family="Times,serif" font-size="14.00">countMarks</text>
</g>
<!-- Node_getType -->
<g id="node9" class="node"><title>Node_getType</title>
<polygon fill="none" stroke="black" points="229,-96.5 229,-132.5 303,-132.5 303,-96.5 229,-96.5"/>
<text text-anchor="middle" x="266" y="-110.8" font-family="Times,serif" font-size="14.00">getType</text>
</g>
<!-- Node_getType&#45;&gt;Node_findSymbol -->
<g id="edge12" class="edge"><title>Node_getType&#45;&gt;Node_findSymbol</title>
<path fill="none" stroke="black" d="M266,-96.3129C266,-88.2895 266,-78.5475 266,-69.5691"/>
<polygon fill="black" stroke="black" points="269.5,-69.5288 266,-59.5288 262.5,-69.5289 269.5,-69.5288"/>
</g>
<!-- Node_getType&#45;&gt;Node_countMarks -->
<g id="edge13" class="edge"><title>Node_getType&#45;&gt;Node_countMarks</title>
<path fill="none" stroke="black" d="M228.907,-99.1874C225.901,-98.0888 222.904,-97.014 220,-96 185.037,-83.7927 145.598,-71.1746 113.723,-61.2605"/>
<polygon fill="black" stroke="black" points="114.675,-57.8913 104.087,-58.2739 112.603,-64.5775 114.675,-57.8913"/>
</g>
<!-- Node_getType&#45;&gt;Node_printf -->
<g id="edge14" class="edge"><title>Node_getType&#45;&gt;Node_printf</title>
<path fill="none" stroke="black" d="M303.138,-98.3823C306.107,-97.4781 309.085,-96.6666 312,-96 423.579,-70.4855 775.186,-50.5564 893.052,-44.4456"/>
<polygon fill="black" stroke="black" points="893.586,-47.9228 903.393,-43.9139 893.227,-40.9321 893.586,-47.9228"/>
</g>
<!-- Node_getType&#45;&gt;Node_memcpy -->
<g id="edge15" class="edge"><title>Node_getType&#45;&gt;Node_memcpy</title>
<path fill="none" stroke="black" d="M240.85,-96.4937C227.055,-87.1657 209.765,-75.4742 194.804,-65.358"/>
<polygon fill="black" stroke="black" points="196.553,-62.3157 186.309,-59.6136 192.632,-68.1145 196.553,-62.3157"/>
</g>
<!-- Node_readRcIni -->
<g id="node10" class="node"><title>Node_readRcIni</title>
<polygon fill="none" stroke="black" points="414.5,-169.5 414.5,-205.5 501.5,-205.5 501.5,-169.5 414.5,-169.5"/>
<text text-anchor="middle" x="458" y="-183.8" font-family="Times,serif" font-size="14.00">readRcIni</text>
</g>
<!-- Node_readRcIni&#45;&gt;Node_deleteBlank -->
<g id="edge16" class="edge"><title>Node_readRcIni&#45;&gt;Node_deleteBlank</title>
<path fill="none" stroke="black" d="M467.199,-169.313C471.68,-160.941 477.162,-150.697 482.137,-141.403"/>
<polygon fill="black" stroke="black" points="485.253,-142.997 486.886,-132.529 479.081,-139.694 485.253,-142.997"/>
</g>
<!-- Node_readRcIni&#45;&gt;Node_getProjectid -->
<g id="edge17" class="edge"><title>Node_readRcIni&#45;&gt;Node_getProjectid</title>
<path fill="none" stroke="black" d="M437.666,-169.313C426.935,-160.243 413.606,-148.977 401.922,-139.1"/>
<polygon fill="black" stroke="black" points="404.044,-136.311 394.147,-132.529 399.525,-141.657 404.044,-136.311"/>
</g>
<!-- Node_readRcIni&#45;&gt;Node_getType -->
<g id="edge18" class="edge"><title>Node_readRcIni&#45;&gt;Node_getType</title>
<path fill="none" stroke="black" d="M414.186,-170.604C387.316,-160.819 351.987,-147.89 312.672,-133.233"/>
<polygon fill="black" stroke="black" points="313.735,-129.893 303.142,-129.675 311.287,-136.451 313.735,-129.893"/>
</g>
<!-- Node_readRcIni&#45;&gt;Node_fopen -->
<g id="edge19" class="edge"><title>Node_readRcIni&#45;&gt;Node_fopen</title>
<path fill="none" stroke="black" d="M501.781,-171.346C504.883,-170.488 507.978,-169.694 511,-169 625.88,-142.618 662.945,-165.988 779.974,-132.793"/>
<polygon fill="black" stroke="black" points="781.04,-136.128 789.661,-129.969 779.081,-129.407 781.04,-136.128"/>
</g>
<!-- Node_readRcIni&#45;&gt;Node_fgets -->
<g id="edge20" class="edge"><title>Node_readRcIni&#45;&gt;Node_fgets</title>
<path fill="none" stroke="black" d="M490.096,-169.494C509.837,-159.034 535.185,-145.603 555.662,-134.754"/>
<polygon fill="black" stroke="black" points="557.492,-137.745 564.69,-129.97 554.215,-131.559 557.492,-137.745"/>
</g>
<!-- Node_readRcIni&#45;&gt;Node_puts -->
<g id="edge21" class="edge"><title>Node_readRcIni&#45;&gt;Node_puts</title>
<path fill="none" stroke="black" d="M414.161,-179.779C367.838,-171.992 292.753,-157.415 220.894,-132.909"/>
<polygon fill="black" stroke="black" points="221.833,-129.53 211.238,-129.548 219.531,-136.141 221.833,-129.53"/>
</g>
<!-- Node_readRcIni&#45;&gt;Node_fclose -->
<g id="edge22" class="edge"><title>Node_readRcIni&#45;&gt;Node_fclose</title>
<path fill="none" stroke="black" d="M501.536,-171.613C504.724,-170.681 507.903,-169.798 511,-169 595.075,-147.341 620.149,-158.953 703,-133 703.097,-132.969 703.195,-132.939 703.292,-132.908"/>
<polygon fill="black" stroke="black" points="704.238,-136.287 712.471,-129.619 701.877,-129.697 704.238,-136.287"/>
</g>
<!-- Node_readRCtype -->
<g id="node11" class="node"><title>Node_readRCtype</title>
<polygon fill="none" stroke="black" points="741,-242.5 741,-278.5 843,-278.5 843,-242.5 741,-242.5"/>
<text text-anchor="middle" x="792" y="-256.8" font-family="Times,serif" font-size="14.00">readRCtype</text>
</g>
<!-- Node_readRCtype&#45;&gt;Node_readProjectId -->
<g id="edge23" class="edge"><title>Node_readRCtype&#45;&gt;Node_readProjectId</title>
<path fill="none" stroke="black" d="M792,-242.313C792,-234.289 792,-224.547 792,-215.569"/>
<polygon fill="black" stroke="black" points="795.5,-215.529 792,-205.529 788.5,-215.529 795.5,-215.529"/>
</g>
<!-- Node_readRCtype&#45;&gt;Node_readRcIni -->
<g id="edge24" class="edge"><title>Node_readRCtype&#45;&gt;Node_readRcIni</title>
<path fill="none" stroke="black" d="M740.792,-251.817C686.229,-243.17 597.232,-227.751 511.441,-205.928"/>
<polygon fill="black" stroke="black" points="512.095,-202.483 501.538,-203.377 510.349,-209.261 512.095,-202.483"/>
</g>
<!-- Node_readRCtype&#45;&gt;Node_printf -->
<g id="edge25" class="edge"><title>Node_readRCtype&#45;&gt;Node_printf</title>
<path fill="none" stroke="black" d="M836.421,-242.465C879.687,-223.189 942.916,-187.236 971,-133 982.188,-111.393 968.909,-85.8626 954.895,-67.4364"/>
<polygon fill="black" stroke="black" points="957.497,-65.0878 948.489,-59.5098 952.052,-69.4875 957.497,-65.0878"/>
</g>
<!-- Node_readRCtype&#45;&gt;Node_puts -->
<g id="edge26" class="edge"><title>Node_readRCtype&#45;&gt;Node_puts</title>
<path fill="none" stroke="black" d="M740.839,-256.324C666.045,-250.809 522.926,-236.943 405,-206 337.517,-188.293 263.263,-154.762 220.296,-133.861"/>
<polygon fill="black" stroke="black" points="221.62,-130.612 211.101,-129.347 218.536,-136.896 221.62,-130.612"/>
</g>
<!-- Node_getPath -->
<g id="node12" class="node"><title>Node_getPath</title>
<polygon fill="none" stroke="black" points="74,-169.5 74,-205.5 146,-205.5 146,-169.5 74,-169.5"/>
<text text-anchor="middle" x="110" y="-183.8" font-family="Times,serif" font-size="14.00">getPath</text>
</g>
<!-- Node_getPath&#45;&gt;Node_findSymbol -->
<g id="edge27" class="edge"><title>Node_getPath&#45;&gt;Node_findSymbol</title>
<path fill="none" stroke="black" d="M113.228,-169.402C117.794,-149.475 127.925,-116.648 148,-96 157.496,-86.2329 184.422,-73.7314 210.159,-63.2697"/>
<polygon fill="black" stroke="black" points="211.565,-66.477 219.552,-59.5165 208.968,-59.9767 211.565,-66.477"/>
</g>
<!-- Node_getPath&#45;&gt;Node_countMarks -->
<g id="edge28" class="edge"><title>Node_getPath&#45;&gt;Node_countMarks</title>
<path fill="none" stroke="black" d="M103.119,-169.416C93.1336,-144.625 74.5346,-98.4479 62.7364,-69.1559"/>
<polygon fill="black" stroke="black" points="65.8549,-67.5301 58.8722,-59.5619 59.3618,-70.1455 65.8549,-67.5301"/>
</g>
<!-- Node_getPath&#45;&gt;Node_memcpy -->
<g id="edge29" class="edge"><title>Node_getPath&#45;&gt;Node_memcpy</title>
<path fill="none" stroke="black" d="M107.771,-169.454C106.03,-150.719 105.305,-120.086 115,-96 119.272,-85.3859 126.551,-75.3949 134.073,-66.9853"/>
<polygon fill="black" stroke="black" points="136.614,-69.3922 140.971,-59.7344 131.543,-64.5676 136.614,-69.3922"/>
</g>
<!-- Node_getPath&#45;&gt;Node_puts -->
<g id="edge30" class="edge"><title>Node_getPath&#45;&gt;Node_puts</title>
<path fill="none" stroke="black" d="M127.913,-169.313C137.185,-160.417 148.658,-149.409 158.807,-139.672"/>
<polygon fill="black" stroke="black" points="161.459,-141.978 166.252,-132.529 156.613,-136.927 161.459,-141.978"/>
</g>
<!-- Node_getDriverWriteNodePath -->
<g id="node13" class="node"><title>Node_getDriverWriteNodePath</title>
<polygon fill="none" stroke="black" points="520,-169.5 520,-205.5 716,-205.5 716,-169.5 520,-169.5"/>
<text text-anchor="middle" x="618" y="-183.8" font-family="Times,serif" font-size="14.00">getDriverWriteNodePath</text>
</g>
<!-- Node_getDriverWriteNodePath&#45;&gt;Node_deleteBlank -->
<g id="edge31" class="edge"><title>Node_getDriverWriteNodePath&#45;&gt;Node_deleteBlank</title>
<path fill="none" stroke="black" d="M588.778,-169.494C572.45,-159.991 551.907,-148.036 534.305,-137.792"/>
<polygon fill="black" stroke="black" points="535.81,-134.618 525.406,-132.614 532.289,-140.669 535.81,-134.618"/>
</g>
<!-- Node_strstr -->
<g id="node15" class="node"><title>Node_strstr</title>
<polygon fill="none" stroke="#7f7f7f" points="637.5,-96.5 637.5,-132.5 694.5,-132.5 694.5,-96.5 637.5,-96.5"/>
<text text-anchor="middle" x="666" y="-110.8" font-family="Times,serif" font-size="14.00" fill="#7f7f7f">strstr</text>
</g>
<!-- Node_getDriverWriteNodePath&#45;&gt;Node_strstr -->
<g id="edge32" class="edge"><title>Node_getDriverWriteNodePath&#45;&gt;Node_strstr</title>
<path fill="none" stroke="black" d="M629.619,-169.313C635.397,-160.766 642.494,-150.269 648.88,-140.823"/>
<polygon fill="black" stroke="black" points="651.786,-142.774 654.488,-132.529 645.987,-138.853 651.786,-142.774"/>
</g>
<!-- Node_getDriverWriteNodePath&#45;&gt;Node_fopen -->
<g id="edge33" class="edge"><title>Node_getDriverWriteNodePath&#45;&gt;Node_fopen</title>
<path fill="none" stroke="black" d="M675.957,-169.408C705.048,-160.384 740.903,-148.589 780.329,-133.053"/>
<polygon fill="black" stroke="black" points="781.887,-136.2 789.878,-129.244 779.293,-129.698 781.887,-136.2"/>
</g>
<!-- Node_getDriverWriteNodePath&#45;&gt;Node_fgets -->
<g id="edge34" class="edge"><title>Node_getDriverWriteNodePath&#45;&gt;Node_fgets</title>
<path fill="none" stroke="black" d="M611.706,-169.313C608.704,-161.115 605.045,-151.123 601.699,-141.985"/>
<polygon fill="black" stroke="black" points="604.961,-140.715 598.236,-132.529 598.388,-143.123 604.961,-140.715"/>
</g>
<!-- Node_getDriverWriteNodePath&#45;&gt;Node_puts -->
<g id="edge35" class="edge"><title>Node_getDriverWriteNodePath&#45;&gt;Node_puts</title>
<path fill="none" stroke="black" d="M519.724,-170.417C516.445,-169.931 513.197,-169.457 510,-169 384.569,-151.059 346.386,-168.97 220.743,-132.669"/>
<polygon fill="black" stroke="black" points="221.725,-129.309 211.143,-129.84 219.746,-136.024 221.725,-129.309"/>
</g>
<!-- Node_getDriverWriteNodePath&#45;&gt;Node_fclose -->
<g id="edge36" class="edge"><title>Node_getDriverWriteNodePath&#45;&gt;Node_fclose</title>
<path fill="none" stroke="black" d="M647.701,-169.494C664.297,-159.991 685.176,-148.036 703.067,-137.792"/>
<polygon fill="black" stroke="black" points="705.173,-140.62 712.111,-132.614 701.694,-134.545 705.173,-140.62"/>
</g>
<!-- Node_main -->
<g id="node14" class="node"><title>Node_main</title>
<polygon fill="none" stroke="black" points="1016,-315.5 1016,-351.5 1070,-351.5 1070,-315.5 1016,-315.5"/>
<text text-anchor="middle" x="1043" y="-329.8" font-family="Times,serif" font-size="14.00">main</text>
</g>
<!-- Node_main&#45;&gt;Node_close -->
<g id="edge37" class="edge"><title>Node_main&#45;&gt;Node_close</title>
<path fill="none" stroke="black" d="M1015.98,-315.674C1000.76,-306.194 981.551,-294.229 965.058,-283.957"/>
<polygon fill="black" stroke="black" points="966.556,-280.767 956.218,-278.451 962.856,-286.709 966.556,-280.767"/>
</g>
<!-- Node_main&#45;&gt;Node_readRCtype -->
<g id="edge38" class="edge"><title>Node_main&#45;&gt;Node_readRCtype</title>
<path fill="none" stroke="black" d="M1015.66,-324.767C976.867,-313.793 904.805,-293.409 852.948,-278.74"/>
<polygon fill="black" stroke="black" points="853.762,-275.333 843.187,-275.979 851.857,-282.069 853.762,-275.333"/>
</g>
<!-- Node_main&#45;&gt;Node_getDriverWriteNodePath -->
<g id="edge39" class="edge"><title>Node_main&#45;&gt;Node_getDriverWriteNodePath</title>
<path fill="none" stroke="black" d="M1015.91,-332.288C960.249,-330.916 830.019,-322.852 732,-279 696.665,-263.192 662.798,-233.897 641.295,-212.917"/>
<polygon fill="black" stroke="black" points="643.507,-210.181 633.952,-205.604 638.568,-215.141 643.507,-210.181"/>
</g>
<!-- Node_main&#45;&gt;Node_printf -->
<g id="edge40" class="edge"><title>Node_main&#45;&gt;Node_printf</title>
<path fill="none" stroke="black" d="M1070.09,-331.924C1105.77,-329.53 1167.34,-319.388 1196,-279 1205.52,-265.59 1203.33,-256.722 1196,-242 1148.5,-146.561 1031.14,-84.6568 970.163,-57.8196"/>
<polygon fill="black" stroke="black" points="971.448,-54.5623 960.88,-53.8137 968.674,-60.9894 971.448,-54.5623"/>
</g>
<!-- Node_strcat -->
<g id="node20" class="node"><title>Node_strcat</title>
<polygon fill="none" stroke="#7f7f7f" points="974.5,-242.5 974.5,-278.5 1033.5,-278.5 1033.5,-242.5 974.5,-242.5"/>
<text text-anchor="middle" x="1004" y="-256.8" font-family="Times,serif" font-size="14.00" fill="#7f7f7f">strcat</text>
</g>
<!-- Node_main&#45;&gt;Node_strcat -->
<g id="edge41" class="edge"><title>Node_main&#45;&gt;Node_strcat</title>
<path fill="none" stroke="black" d="M1033.56,-315.313C1028.96,-306.941 1023.33,-296.697 1018.23,-287.403"/>
<polygon fill="black" stroke="black" points="1021.24,-285.609 1013.35,-278.529 1015.1,-288.979 1021.24,-285.609"/>
</g>
<!-- Node_usleep -->
<g id="node21" class="node"><title>Node_usleep</title>
<polygon fill="none" stroke="#7f7f7f" points="1051.5,-242.5 1051.5,-278.5 1114.5,-278.5 1114.5,-242.5 1051.5,-242.5"/>
<text text-anchor="middle" x="1083" y="-256.8" font-family="Times,serif" font-size="14.00" fill="#7f7f7f">usleep</text>
</g>
<!-- Node_main&#45;&gt;Node_usleep -->
<g id="edge42" class="edge"><title>Node_main&#45;&gt;Node_usleep</title>
<path fill="none" stroke="black" d="M1052.68,-315.313C1057.4,-306.941 1063.17,-296.697 1068.41,-287.403"/>
<polygon fill="black" stroke="black" points="1071.55,-288.959 1073.41,-278.529 1065.45,-285.523 1071.55,-288.959"/>
</g>
<!-- Node_main&#45;&gt;Node_puts -->
<g id="edge43" class="edge"><title>Node_main&#45;&gt;Node_puts</title>
<path fill="none" stroke="black" d="M1015.74,-332.922C915.111,-333.465 556.849,-326.36 297,-206 262.266,-189.912 228.867,-160.936 207.507,-140.101"/>
<polygon fill="black" stroke="black" points="209.759,-137.404 200.202,-132.832 204.822,-142.366 209.759,-137.404"/>
</g>
<!-- Node_open -->
<g id="node24" class="node"><title>Node_open</title>
<polygon fill="none" stroke="#7f7f7f" points="1133,-242.5 1133,-278.5 1187,-278.5 1187,-242.5 1133,-242.5"/>
<text text-anchor="middle" x="1160" y="-256.8" font-family="Times,serif" font-size="14.00" fill="#7f7f7f">open</text>
</g>
<!-- Node_main&#45;&gt;Node_open -->
<g id="edge44" class="edge"><title>Node_main&#45;&gt;Node_open</title>
<path fill="none" stroke="black" d="M1070.14,-316.033C1086.12,-306.335 1106.53,-293.947 1123.86,-283.429"/>
<polygon fill="black" stroke="black" points="1125.87,-286.304 1132.61,-278.124 1122.24,-280.32 1125.87,-286.304"/>
</g>
<!-- Node_main&#45;&gt;Node_strlen -->
<g id="edge45" class="edge"><title>Node_main&#45;&gt;Node_strlen</title>
<path fill="none" stroke="black" d="M1015.83,-331.698C980.738,-329.025 920.88,-318.545 893,-279 863.44,-237.074 892.867,-175.632 914.208,-141.246"/>
<polygon fill="black" stroke="black" points="917.232,-143.015 919.688,-132.709 911.341,-139.234 917.232,-143.015"/>
</g>
<!-- Node_write -->
<g id="node26" class="node"><title>Node_write</title>
<polygon fill="none" stroke="#7f7f7f" points="1243,-242.5 1243,-278.5 1297,-278.5 1297,-242.5 1243,-242.5"/>
<text text-anchor="middle" x="1270" y="-256.8" font-family="Times,serif" font-size="14.00" fill="#7f7f7f">write</text>
</g>
<!-- Node_main&#45;&gt;Node_write -->
<g id="edge46" class="edge"><title>Node_main&#45;&gt;Node_write</title>
<path fill="none" stroke="black" d="M1070.13,-325.819C1106.64,-316.573 1173.44,-298.763 1229,-279 1230.41,-278.497 1231.85,-277.971 1233.29,-277.426"/>
<polygon fill="black" stroke="black" points="1234.83,-280.582 1242.84,-273.647 1232.25,-274.073 1234.83,-280.582"/>
</g>
<!-- Node_access -->
<g id="node27" class="node"><title>Node_access</title>
<polygon fill="none" stroke="#7f7f7f" points="1315.5,-242.5 1315.5,-278.5 1380.5,-278.5 1380.5,-242.5 1315.5,-242.5"/>
<text text-anchor="middle" x="1348" y="-256.8" font-family="Times,serif" font-size="14.00" fill="#7f7f7f">access</text>
</g>
<!-- Node_main&#45;&gt;Node_access -->
<g id="edge47" class="edge"><title>Node_main&#45;&gt;Node_access</title>
<path fill="none" stroke="black" d="M1070.31,-328.733C1116.93,-321.924 1214.82,-305.975 1305.6,-278.799"/>
<polygon fill="black" stroke="black" points="1306.66,-282.135 1315.21,-275.872 1304.62,-275.438 1306.66,-282.135"/>
</g>
<!-- Node_sprintf -->
<g id="node29" class="node"><title>Node_sprintf</title>
<polygon fill="none" stroke="#7f7f7f" points="1398.5,-242.5 1398.5,-278.5 1463.5,-278.5 1463.5,-242.5 1398.5,-242.5"/>
<text text-anchor="middle" x="1431" y="-256.8" font-family="Times,serif" font-size="14.00" fill="#7f7f7f">sprintf</text>
</g>
<!-- Node_main&#45;&gt;Node_sprintf -->
<g id="edge48" class="edge"><title>Node_main&#45;&gt;Node_sprintf</title>
<path fill="none" stroke="black" d="M1070.05,-330.644C1127.55,-326.213 1266.09,-312.953 1388.25,-279.155"/>
<polygon fill="black" stroke="black" points="1389.47,-282.449 1398.14,-276.364 1387.57,-275.713 1389.47,-282.449"/>
</g>
</g>
</svg>
