<?xml version="1.0" encoding="UTF-8" standalone="no"?>
<!DOCTYPE svg PUBLIC "-//W3C//DTD SVG 1.1//EN"
 "http://www.w3.org/Graphics/SVG/1.1/DTD/svg11.dtd">
<!-- Generated by graphviz version 2.38.0 (20140413.2041)
 -->
<!-- Title: Call graph of the module. Pages: 1 -->
<svg width="1489pt" height="253pt"
 viewBox="0.00 0.00 1488.50 253.00" xmlns="http://www.w3.org/2000/svg" xmlns:xlink="http://www.w3.org/1999/xlink">
<g id="graph0" class="graph" transform="scale(1 1) rotate(0) translate(4 249)">
<title>Call graph of the module.</title>
<polygon fill="white" stroke="none" points="-4,4 -4,-249 1484.5,-249 1484.5,4 -4,4"/>
<text text-anchor="middle" x="740.25" y="-7.8" font-family="Times,serif" font-size="14.00">Call graph of module /home/zhf/samba/TMER/core/media/src/intergrated/media_server/mediaserver/tcl_player_main.c.</text>
<g id="clust1" class="cluster"><title>cluster_2fhome2fzhf2fsamba2fTMER2fcore2fmedia2fsrc2fintergrated2fmedia_server2fmediaserver2ftcl_player_main_c</title>
<polygon fill="none" stroke="#0000cd" points="8,-88 8,-237 718,-237 718,-88 8,-88"/>
<text text-anchor="middle" x="363" y="-221.8" font-family="Times,serif" font-size="14.00" fill="#0000cd">/home/zhf/samba/TMER/core/media/src/intergrated/media_server/mediaserver/tcl_player_main.c</text>
</g>
<!-- Node_media_service -->
<g id="node1" class="node"><title>Node_media_service</title>
<polygon fill="none" stroke="black" points="589.5,-96.5 589.5,-132.5 708.5,-132.5 708.5,-96.5 589.5,-96.5"/>
<text text-anchor="middle" x="649" y="-110.8" font-family="Times,serif" font-size="14.00">media_service</text>
</g>
<!-- Node_fwrite -->
<g id="node3" class="node"><title>Node_fwrite</title>
<polygon fill="none" stroke="#7f7f7f" points="394.5,-23.5 394.5,-59.5 453.5,-59.5 453.5,-23.5 394.5,-23.5"/>
<text text-anchor="middle" x="424" y="-37.8" font-family="Times,serif" font-size="14.00" fill="#7f7f7f">fwrite</text>
</g>
<!-- Node_media_service&#45;&gt;Node_fwrite -->
<g id="edge1" class="edge"><title>Node_media_service&#45;&gt;Node_fwrite</title>
<path fill="none" stroke="black" d="M589.254,-98.6246C552.435,-88.8907 504.492,-75.1896 463,-60 462.904,-59.9649 462.808,-59.9297 462.712,-59.8944"/>
<polygon fill="black" stroke="black" points="464.218,-56.7259 453.631,-56.3173 461.653,-63.2388 464.218,-56.7259"/>
</g>
<!-- Node_fprintf -->
<g id="node4" class="node"><title>Node_fprintf</title>
<polygon fill="none" stroke="#7f7f7f" points="472,-23.5 472,-59.5 534,-59.5 534,-23.5 472,-23.5"/>
<text text-anchor="middle" x="503" y="-37.8" font-family="Times,serif" font-size="14.00" fill="#7f7f7f">fprintf</text>
</g>
<!-- Node_media_service&#45;&gt;Node_fprintf -->
<g id="edge2" class="edge"><title>Node_media_service&#45;&gt;Node_fprintf</title>
<path fill="none" stroke="black" d="M614.029,-96.4937C592.77,-86.1555 565.542,-72.914 543.369,-62.1317"/>
<polygon fill="black" stroke="black" points="544.732,-58.9026 534.209,-57.6768 541.671,-65.1978 544.732,-58.9026"/>
</g>
<!-- Node_tcl_gstplayer_server_init -->
<g id="node5" class="node"><title>Node_tcl_gstplayer_server_init</title>
<polygon fill="none" stroke="#7f7f7f" points="551.5,-23.5 551.5,-59.5 746.5,-59.5 746.5,-23.5 551.5,-23.5"/>
<text text-anchor="middle" x="649" y="-37.8" font-family="Times,serif" font-size="14.00" fill="#7f7f7f">tcl_gstplayer_server_init</text>
</g>
<!-- Node_media_service&#45;&gt;Node_tcl_gstplayer_server_init -->
<g id="edge3" class="edge"><title>Node_media_service&#45;&gt;Node_tcl_gstplayer_server_init</title>
<path fill="none" stroke="black" d="M649,-96.3129C649,-88.2895 649,-78.5475 649,-69.5691"/>
<polygon fill="black" stroke="black" points="652.5,-69.5288 649,-59.5288 645.5,-69.5289 652.5,-69.5288"/>
</g>
<!-- Node_sleep -->
<g id="node6" class="node"><title>Node_sleep</title>
<polygon fill="none" stroke="#7f7f7f" points="765,-23.5 765,-59.5 819,-59.5 819,-23.5 765,-23.5"/>
<text text-anchor="middle" x="792" y="-37.8" font-family="Times,serif" font-size="14.00" fill="#7f7f7f">sleep</text>
</g>
<!-- Node_media_service&#45;&gt;Node_sleep -->
<g id="edge4" class="edge"><title>Node_media_service&#45;&gt;Node_sleep</title>
<path fill="none" stroke="black" d="M683.252,-96.4937C705.086,-85.6529 733.35,-71.6198 755.591,-60.5773"/>
<polygon fill="black" stroke="black" points="757.317,-63.6279 764.717,-56.0459 754.204,-57.3581 757.317,-63.6279"/>
</g>
<!-- Node_mm_log_level_get -->
<g id="node7" class="node"><title>Node_mm_log_level_get</title>
<polygon fill="none" stroke="#7f7f7f" points="919.5,-23.5 919.5,-59.5 1064.5,-59.5 1064.5,-23.5 919.5,-23.5"/>
<text text-anchor="middle" x="992" y="-37.8" font-family="Times,serif" font-size="14.00" fill="#7f7f7f">mm_log_level_get</text>
</g>
<!-- Node_media_service&#45;&gt;Node_mm_log_level_get -->
<g id="edge5" class="edge"><title>Node_media_service&#45;&gt;Node_mm_log_level_get</title>
<path fill="none" stroke="black" d="M690.886,-96.4341C699.733,-93.2797 709.089,-90.2696 718,-88 798.548,-67.4837 823.339,-74.6533 909.246,-60.0392"/>
<polygon fill="black" stroke="black" points="909.925,-63.4737 919.171,-58.3013 908.717,-56.5786 909.925,-63.4737"/>
</g>
<!-- Node_setenv -->
<g id="node10" class="node"><title>Node_setenv</title>
<polygon fill="none" stroke="#7f7f7f" points="837,-23.5 837,-59.5 901,-59.5 901,-23.5 837,-23.5"/>
<text text-anchor="middle" x="869" y="-37.8" font-family="Times,serif" font-size="14.00" fill="#7f7f7f">setenv</text>
</g>
<!-- Node_media_service&#45;&gt;Node_setenv -->
<g id="edge6" class="edge"><title>Node_media_service&#45;&gt;Node_setenv</title>
<path fill="none" stroke="black" d="M692.935,-96.4822C701.21,-93.5 709.83,-90.5419 718,-88 763.348,-73.8915 778.452,-75.8644 827.404,-59.9249"/>
<polygon fill="black" stroke="black" points="828.579,-63.2225 836.953,-56.7322 826.359,-56.5837 828.579,-63.2225"/>
</g>
<!-- Node_main -->
<g id="node2" class="node"><title>Node_main</title>
<polygon fill="none" stroke="black" points="656,-169.5 656,-205.5 710,-205.5 710,-169.5 656,-169.5"/>
<text text-anchor="middle" x="683" y="-183.8" font-family="Times,serif" font-size="14.00">main</text>
</g>
<!-- Node_main&#45;&gt;Node_media_service -->
<g id="edge7" class="edge"><title>Node_main&#45;&gt;Node_media_service</title>
<path fill="none" stroke="black" d="M674.77,-169.313C670.802,-161.028 665.957,-150.91 661.543,-141.693"/>
<polygon fill="black" stroke="black" points="664.63,-140.036 657.155,-132.529 658.317,-143.06 664.63,-140.036"/>
</g>
<!-- Node_main&#45;&gt;Node_fwrite -->
<g id="edge8" class="edge"><title>Node_main&#45;&gt;Node_fwrite</title>
<path fill="none" stroke="black" d="M655.764,-179.884C624.729,-171.657 573.121,-155.853 533,-133 500.832,-114.677 468.81,-86.6153 447.883,-66.6008"/>
<polygon fill="black" stroke="black" points="450.309,-64.0776 440.695,-59.6241 445.433,-69.1005 450.309,-64.0776"/>
</g>
<!-- Node_main&#45;&gt;Node_fprintf -->
<g id="edge9" class="edge"><title>Node_main&#45;&gt;Node_fprintf</title>
<path fill="none" stroke="black" d="M655.929,-175.887C634.11,-166.555 603.33,-151.576 580,-133 556.383,-114.195 534.604,-87.3155 520.281,-67.7384"/>
<polygon fill="black" stroke="black" points="523.101,-65.6648 514.429,-59.5768 517.411,-69.7434 523.101,-65.6648"/>
</g>
<!-- Node_main&#45;&gt;Node_mm_log_level_get -->
<g id="edge10" class="edge"><title>Node_main&#45;&gt;Node_mm_log_level_get</title>
<path fill="none" stroke="black" d="M710.229,-183.903C749.081,-179.131 821.423,-166.205 873,-133 895.01,-118.83 890.822,-104.676 911,-88 921.601,-79.2388 934.126,-71.2662 946.117,-64.5289"/>
<polygon fill="black" stroke="black" points="948.027,-67.4747 955.142,-59.6249 944.685,-61.324 948.027,-67.4747"/>
</g>
<!-- Node_strerror -->
<g id="node8" class="node"><title>Node_strerror</title>
<polygon fill="none" stroke="#7f7f7f" points="920,-96.5 920,-132.5 994,-132.5 994,-96.5 920,-96.5"/>
<text text-anchor="middle" x="957" y="-110.8" font-family="Times,serif" font-size="14.00" fill="#7f7f7f">strerror</text>
</g>
<!-- Node_main&#45;&gt;Node_strerror -->
<g id="edge11" class="edge"><title>Node_main&#45;&gt;Node_strerror</title>
<path fill="none" stroke="black" d="M710.338,-180.82C752.605,-171.84 836.23,-153.29 906,-133 907.404,-132.592 908.827,-132.168 910.262,-131.732"/>
<polygon fill="black" stroke="black" points="911.324,-135.067 919.807,-128.719 909.217,-128.392 911.324,-135.067"/>
</g>
<!-- Node___errno_location -->
<g id="node9" class="node"><title>Node___errno_location</title>
<polygon fill="none" stroke="#7f7f7f" points="1012.5,-96.5 1012.5,-132.5 1147.5,-132.5 1147.5,-96.5 1012.5,-96.5"/>
<text text-anchor="middle" x="1080" y="-110.8" font-family="Times,serif" font-size="14.00" fill="#7f7f7f">__errno_location</text>
</g>
<!-- Node_main&#45;&gt;Node___errno_location -->
<g id="edge12" class="edge"><title>Node_main&#45;&gt;Node___errno_location</title>
<path fill="none" stroke="black" d="M710.067,-182.515C763.747,-174.498 887.676,-155.412 1002.43,-133.05"/>
<polygon fill="black" stroke="black" points="1003.3,-136.446 1012.44,-131.087 1001.95,-129.577 1003.3,-136.446"/>
</g>
<!-- Node_fork -->
<g id="node11" class="node"><title>Node_fork</title>
<polygon fill="none" stroke="#7f7f7f" points="1166,-96.5 1166,-132.5 1220,-132.5 1220,-96.5 1166,-96.5"/>
<text text-anchor="middle" x="1193" y="-110.8" font-family="Times,serif" font-size="14.00" fill="#7f7f7f">fork</text>
</g>
<!-- Node_main&#45;&gt;Node_fork -->
<g id="edge13" class="edge"><title>Node_main&#45;&gt;Node_fork</title>
<path fill="none" stroke="black" d="M710.088,-186.622C782.197,-186.288 984.473,-181.033 1156.16,-132.663"/>
<polygon fill="black" stroke="black" points="1157.22,-136.001 1165.87,-129.874 1155.29,-129.273 1157.22,-136.001"/>
</g>
<!-- Node_mm_log_parse_env -->
<g id="node12" class="node"><title>Node_mm_log_parse_env</title>
<polygon fill="none" stroke="#7f7f7f" points="1238.5,-96.5 1238.5,-132.5 1391.5,-132.5 1391.5,-96.5 1238.5,-96.5"/>
<text text-anchor="middle" x="1315" y="-110.8" font-family="Times,serif" font-size="14.00" fill="#7f7f7f">mm_log_parse_env</text>
</g>
<!-- Node_main&#45;&gt;Node_mm_log_parse_env -->
<g id="edge14" class="edge"><title>Node_main&#45;&gt;Node_mm_log_parse_env</title>
<path fill="none" stroke="black" d="M710.107,-184.837C788.648,-179.809 1023.25,-163.313 1228.13,-133.04"/>
<polygon fill="black" stroke="black" points="1228.8,-136.479 1238.18,-131.541 1227.77,-129.556 1228.8,-136.479"/>
</g>
<!-- Node_gst_init -->
<g id="node13" class="node"><title>Node_gst_init</title>
<polygon fill="none" stroke="#7f7f7f" points="1409.5,-96.5 1409.5,-132.5 1480.5,-132.5 1480.5,-96.5 1409.5,-96.5"/>
<text text-anchor="middle" x="1445" y="-110.8" font-family="Times,serif" font-size="14.00" fill="#7f7f7f">gst_init</text>
</g>
<!-- Node_main&#45;&gt;Node_gst_init -->
<g id="edge15" class="edge"><title>Node_main&#45;&gt;Node_gst_init</title>
<path fill="none" stroke="black" d="M710.09,-185.582C821.585,-181.637 1245.97,-164.961 1399.15,-132.97"/>
<polygon fill="black" stroke="black" points="1400.25,-136.309 1409.27,-130.74 1398.75,-129.473 1400.25,-136.309"/>
</g>
<!-- Node_getenv -->
<g id="node14" class="node"><title>Node_getenv</title>
<polygon fill="none" stroke="#7f7f7f" points="726.5,-96.5 726.5,-132.5 791.5,-132.5 791.5,-96.5 726.5,-96.5"/>
<text text-anchor="middle" x="759" y="-110.8" font-family="Times,serif" font-size="14.00" fill="#7f7f7f">getenv</text>
</g>
<!-- Node_main&#45;&gt;Node_getenv -->
<g id="edge16" class="edge"><title>Node_main&#45;&gt;Node_getenv</title>
<path fill="none" stroke="black" d="M701.397,-169.313C711.013,-160.33 722.934,-149.193 733.432,-139.386"/>
<polygon fill="black" stroke="black" points="735.854,-141.913 740.772,-132.529 731.075,-136.798 735.854,-141.913"/>
</g>
<!-- Node_wait -->
<g id="node15" class="node"><title>Node_wait</title>
<polygon fill="none" stroke="#7f7f7f" points="810,-96.5 810,-132.5 864,-132.5 864,-96.5 810,-96.5"/>
<text text-anchor="middle" x="837" y="-110.8" font-family="Times,serif" font-size="14.00" fill="#7f7f7f">wait</text>
</g>
<!-- Node_main&#45;&gt;Node_wait -->
<g id="edge17" class="edge"><title>Node_main&#45;&gt;Node_wait</title>
<path fill="none" stroke="black" d="M710.278,-174.381C732.383,-164.507 764.532,-150.022 800.647,-133.114"/>
<polygon fill="black" stroke="black" points="802.346,-136.183 809.911,-128.765 799.371,-129.847 802.346,-136.183"/>
</g>
</g>
</svg>
